<?xml version="1.0" encoding="UTF-8" standalone="no"?>
<!-- Created with Inkscape (http://www.inkscape.org/) -->
<svg
   xmlns:dc="http://purl.org/dc/elements/1.1/"
   xmlns:cc="http://creativecommons.org/ns#"
   xmlns:rdf="http://www.w3.org/1999/02/22-rdf-syntax-ns#"
   xmlns:svg="http://www.w3.org/2000/svg"
   xmlns="http://www.w3.org/2000/svg"
   xmlns:xlink="http://www.w3.org/1999/xlink"
   xmlns:sodipodi="http://sodipodi.sourceforge.net/DTD/sodipodi-0.dtd"
   xmlns:inkscape="http://www.inkscape.org/namespaces/inkscape"
   width="493"
   height="312"
   id="svg2512"
   sodipodi:version="0.32"
   inkscape:version="0.46"
   version="1.0"
   sodipodi:docname="dialog.svg"
   inkscape:output_extension="org.inkscape.output.svg.inkscape"
   inkscape:export-filename="C:\Users\eedwards\Documents\Visual Studio 2008\Projects\code.google.com\devfuelnet\WiX\dialog.png"
   inkscape:export-xdpi="90"
   inkscape:export-ydpi="90">
  <defs
     id="defs2514">
    <linearGradient
       id="linearGradient3422">
      <stop
         style="stop-color:#e4e4e4;stop-opacity:1;"
         offset="0"
         id="stop3424" />
      <stop
         style="stop-color:#ffffff;stop-opacity:1;"
         offset="1"
         id="stop3426" />
    </linearGradient>
    <linearGradient
       inkscape:collect="always"
       id="linearGradient3347">
      <stop
         style="stop-color:#000000;stop-opacity:1;"
         offset="0"
         id="stop3349" />
      <stop
         style="stop-color:#000000;stop-opacity:0;"
         offset="1"
         id="stop3351" />
    </linearGradient>
    <filter
       inkscape:collect="always"
       id="filter10976">
      <feGaussianBlur
         inkscape:collect="always"
         stdDeviation="3.0922537"
         id="feGaussianBlur10978" />
    </filter>
    <radialGradient
       inkscape:collect="always"
       xlink:href="#linearGradient9498"
       id="radialGradient11020"
       gradientUnits="userSpaceOnUse"
       gradientTransform="matrix(4.5578264,3.5531871e-2,-2.8536546e-2,3.6605058,-369.249,-1321.679)"
       cx="88.988182"
       cy="481.6077"
       fx="88.988182"
       fy="481.6077"
       r="31.514593" />
    <linearGradient
       inkscape:collect="always"
       xlink:href="#linearGradient9498"
       id="linearGradient11018"
       gradientUnits="userSpaceOnUse"
       gradientTransform="translate(-62,-62)"
       x1="86.253181"
       y1="436.66028"
       x2="84.59375"
       y2="511.15903" />
    <linearGradient
       id="linearGradient3264">
      <stop
         id="stop3266"
         offset="0"
         style="stop-color:#c9c9c9;stop-opacity:1;" />
      <stop
         style="stop-color:#f8f8f8;stop-opacity:1;"
         offset="0.25"
         id="stop3276" />
      <stop
         style="stop-color:#e2e2e2;stop-opacity:1;"
         offset="0.5"
         id="stop3272" />
      <stop
         id="stop3274"
         offset="0.75"
         style="stop-color:#b0b0b0;stop-opacity:1;" />
      <stop
         id="stop3268"
         offset="1"
         style="stop-color:#c9c9c9;stop-opacity:1;" />
    </linearGradient>
    <linearGradient
       inkscape:collect="always"
       xlink:href="#linearGradient3264"
       id="linearGradient11024"
       gradientUnits="userSpaceOnUse"
       gradientTransform="translate(-26.577094,-48.395839)"
       x1="227.26363"
       y1="427.03577"
       x2="227.26363"
       y2="482.04065" />
    <linearGradient
       id="linearGradient9498">
      <stop
         style="stop-color:#d82300;stop-opacity:1;"
         offset="0"
         id="stop9500" />
      <stop
         id="stop9506"
         offset="0.5"
         style="stop-color:#ebd800;stop-opacity:1;" />
      <stop
         style="stop-color:#fff4c8;stop-opacity:1;"
         offset="1"
         id="stop9502" />
    </linearGradient>
    <linearGradient
       inkscape:collect="always"
       xlink:href="#linearGradient9498"
       id="linearGradient11022"
       gradientUnits="userSpaceOnUse"
       gradientTransform="translate(-208.25889,34.234578)"
       x1="227.26363"
       y1="427.03577"
       x2="227.26363"
       y2="482.04065" />
    <linearGradient
       id="linearGradient10982">
      <stop
         style="stop-color:#202020;stop-opacity:1;"
         offset="0"
         id="stop10984" />
      <stop
         id="stop10990"
         offset="0.15727383"
         style="stop-color:#505050;stop-opacity:1;" />
      <stop
         style="stop-color:#323232;stop-opacity:1;"
         offset="0.90422839"
         id="stop10992" />
      <stop
         style="stop-color:#202020;stop-opacity:1;"
         offset="1"
         id="stop10986" />
    </linearGradient>
    <inkscape:perspective
       sodipodi:type="inkscape:persp3d"
       inkscape:vp_x="0 : 526.18109 : 1"
       inkscape:vp_y="0 : 1000 : 0"
       inkscape:vp_z="744.09448 : 526.18109 : 1"
       inkscape:persp3d-origin="372.04724 : 350.78739 : 1"
       id="perspective2520" />
    <linearGradient
       inkscape:collect="always"
       xlink:href="#linearGradient10982"
       id="linearGradient2571"
       gradientUnits="userSpaceOnUse"
       gradientTransform="matrix(0,-0.5220967,-1.6566502,0,536.47091,439.50479)"
       x1="309.71277"
       y1="223.83405"
       x2="309.71277"
       y2="323.83405" />
    <linearGradient
       inkscape:collect="always"
       xlink:href="#linearGradient3347"
       id="linearGradient3353"
       x1="132.32567"
       y1="148.9511"
       x2="132.32567"
       y2="-193.11623"
       gradientUnits="userSpaceOnUse"
       gradientTransform="matrix(0.8783791,0,0,0.8783791,10.046279,170.05339)" />
    <linearGradient
       inkscape:collect="always"
       xlink:href="#linearGradient3422"
       id="linearGradient3428"
       x1="491.98129"
       y1="-16.903669"
       x2="-8.1478014"
       y2="-16.903669"
       gradientUnits="userSpaceOnUse"
       gradientTransform="matrix(0.9857522,0,0,0.9932364,7.9653747,26.360453)" />
    <linearGradient
       inkscape:collect="always"
       xlink:href="#linearGradient3422"
       id="linearGradient3443"
       gradientUnits="userSpaceOnUse"
       gradientTransform="matrix(0.9857522,0,0,0.9932364,7.9653747,26.360453)"
       x1="491.98129"
       y1="-16.903669"
       x2="-8.1478014"
       y2="-16.903669" />
    <linearGradient
       inkscape:collect="always"
       xlink:href="#linearGradient10982"
       id="linearGradient3445"
       gradientUnits="userSpaceOnUse"
       gradientTransform="matrix(0,-0.5220967,-1.6566502,0,536.47091,439.50479)"
       x1="309.71277"
       y1="223.83405"
       x2="309.71277"
       y2="323.83405" />
    <linearGradient
       inkscape:collect="always"
       xlink:href="#linearGradient3347"
       id="linearGradient3447"
       gradientUnits="userSpaceOnUse"
       gradientTransform="matrix(0.8783791,0,0,0.8783791,10.046279,170.05339)"
       x1="132.32567"
       y1="148.9511"
       x2="132.32567"
       y2="-193.11623" />
    <linearGradient
       inkscape:collect="always"
       xlink:href="#linearGradient9498"
       id="linearGradient3449"
       gradientUnits="userSpaceOnUse"
       gradientTransform="translate(-62,-62)"
       x1="86.253181"
       y1="436.66028"
       x2="84.59375"
       y2="511.15903" />
    <radialGradient
       inkscape:collect="always"
       xlink:href="#linearGradient9498"
       id="radialGradient3451"
       gradientUnits="userSpaceOnUse"
       gradientTransform="matrix(4.5578264,3.5531871e-2,-2.8536546e-2,3.6605058,-369.249,-1321.679)"
       cx="88.988182"
       cy="481.6077"
       fx="88.988182"
       fy="481.6077"
       r="31.514593" />
    <linearGradient
       inkscape:collect="always"
       xlink:href="#linearGradient9498"
       id="linearGradient3453"
       gradientUnits="userSpaceOnUse"
       gradientTransform="translate(-208.25889,34.234578)"
       x1="227.26363"
       y1="427.03577"
       x2="227.26363"
       y2="482.04065" />
    <linearGradient
       inkscape:collect="always"
       xlink:href="#linearGradient3264"
       id="linearGradient3455"
       gradientUnits="userSpaceOnUse"
       gradientTransform="translate(-26.577094,-48.395839)"
       x1="227.26363"
       y1="427.03577"
       x2="227.26363"
       y2="482.04065" />
    <linearGradient
       inkscape:collect="always"
       xlink:href="#linearGradient3347"
       id="linearGradient3466"
       gradientUnits="userSpaceOnUse"
       gradientTransform="matrix(0.8783791,0,0,0.8783791,10.108951,167.99089)"
       x1="132.32567"
       y1="148.9511"
       x2="132.32567"
       y2="-193.11623" />
    <linearGradient
       inkscape:collect="always"
       xlink:href="#linearGradient10982"
       id="linearGradient3469"
       gradientUnits="userSpaceOnUse"
       gradientTransform="matrix(0,-0.5220967,-1.6566502,0,536.53358,437.44229)"
       x1="309.71277"
       y1="223.83405"
       x2="309.71277"
       y2="323.83405" />
    <linearGradient
       inkscape:collect="always"
       xlink:href="#linearGradient3347"
       id="linearGradient3485"
       gradientUnits="userSpaceOnUse"
       gradientTransform="matrix(0.8783791,0,0,0.8783791,10.108951,167.99089)"
       x1="132.32567"
       y1="148.9511"
       x2="132.32567"
       y2="-193.11623" />
    <linearGradient
       inkscape:collect="always"
       xlink:href="#linearGradient9498"
       id="linearGradient3487"
       gradientUnits="userSpaceOnUse"
       gradientTransform="translate(-62,-62)"
       x1="86.253181"
       y1="436.66028"
       x2="84.59375"
       y2="511.15903" />
    <radialGradient
       inkscape:collect="always"
       xlink:href="#linearGradient9498"
       id="radialGradient3489"
       gradientUnits="userSpaceOnUse"
       gradientTransform="matrix(4.5578264,3.5531871e-2,-2.8536546e-2,3.6605058,-369.249,-1321.679)"
       cx="88.988182"
       cy="481.6077"
       fx="88.988182"
       fy="481.6077"
       r="31.514593" />
    <linearGradient
       inkscape:collect="always"
       xlink:href="#linearGradient9498"
       id="linearGradient3491"
       gradientUnits="userSpaceOnUse"
       gradientTransform="translate(-208.25889,34.234578)"
       x1="227.26363"
       y1="427.03577"
       x2="227.26363"
       y2="482.04065" />
    <linearGradient
       inkscape:collect="always"
       xlink:href="#linearGradient3264"
       id="linearGradient3493"
       gradientUnits="userSpaceOnUse"
       gradientTransform="translate(-26.577094,-48.395839)"
       x1="227.26363"
       y1="427.03577"
       x2="227.26363"
       y2="482.04065" />
  </defs>
  <sodipodi:namedview
     id="base"
     pagecolor="#ffffff"
     bordercolor="#666666"
     borderopacity="1.0"
     gridtolerance="10000"
     guidetolerance="10"
     objecttolerance="10"
     inkscape:pageopacity="0.0"
     inkscape:pageshadow="2"
     inkscape:zoom="0.98994949"
     inkscape:cx="375.7704"
     inkscape:cy="160.15601"
     inkscape:document-units="px"
     inkscape:current-layer="layer1"
     showgrid="false"
     showguides="true"
     inkscape:guide-bbox="true"
     inkscape:window-width="1497"
     inkscape:window-height="718"
     inkscape:window-x="-9"
     inkscape:window-y="235">
    <sodipodi:guide
       orientation="1,0"
       position="165.66502,86.873119"
       id="guide2561" />
  </sodipodi:namedview>
  <metadata
     id="metadata2517">
    <rdf:RDF>
      <cc:Work
         rdf:about="">
        <dc:format>image/svg+xml</dc:format>
        <dc:type
           rdf:resource="http://purl.org/dc/dcmitype/StillImage" />
      </cc:Work>
    </rdf:RDF>
  </metadata>
  <g
     inkscape:label="Layer 1"
     inkscape:groupmode="layer"
     id="layer1">
    <rect
       style="fill:#ffffff;fill-opacity:1;stroke:#241c1c;stroke-width:0.09894871000000000;stroke-linecap:round;stroke-linejoin:miter;stroke-miterlimit:4;stroke-dasharray:none;stroke-opacity:0.67021275000000002"
       id="rect3420"
       width="492.87607"
       height="311.87622"
       x="0.061965942"
       y="0.061889686" />
    <path
       style="fill:url(#linearGradient3469);fill-opacity:1;stroke:none;stroke-width:9.5;stroke-linejoin:round;stroke-miterlimit:4;stroke-opacity:1"
       d="M 165.71892,-2e-07 C 165.71892,44.325931 165.71892,208.45147 165.71892,312 L 0.062672095,312 L 0.062672095,-2e-07 L 165.71892,-2e-07 z"
       id="path10998" />
    <g
       id="g3474"
       transform="translate(0.2248993,0)">
      <path
         inkscape:export-ydpi="90"
         inkscape:export-xdpi="90"
         inkscape:export-filename="C:\Users\eedwards\Documents\_Community\DevFuel\g10857.png"
         sodipodi:nodetypes="ccccccc"
         id="rect10873"
         d="M 155.62185,0.3618445 L 155.62185,288.30774 C 155.62185,294.0553 150.57898,298.6824 144.31497,298.6824 L 21.016828,298.6824 C 14.752814,298.6824 9.7099434,294.0553 9.7099434,288.30774 L 9.7099434,0.3618445 C 32.278658,0.3618445 122.74199,0.3618445 155.62185,0.3618445 z"
         style="fill:url(#linearGradient3485);fill-opacity:1;stroke:none;stroke-width:9.5;stroke-linejoin:round;stroke-miterlimit:4;stroke-opacity:1" />
      <path
         inkscape:export-ydpi="90"
         inkscape:export-xdpi="90"
         inkscape:export-filename="C:\Users\eedwards\Documents\_Community\DevFuel\g10857.png"
         transform="matrix(0.5895732,0,0,0.5895732,-41.508116,80.954784)"
         id="path10886"
         d="M 255.53023,237.5616 C 252.45202,240.89855 246.54458,244.76132 239.41261,247.80876 C 228.18795,252.60498 218.16519,253.56044 217.05128,249.95594 C 216.04375,246.69565 222.66905,240.80066 232.24828,236.15639 C 213.43264,239.06233 188.17119,247.33843 175.5337,259.89911 C 160.42353,274.91744 156.51462,299.2962 174.42722,317.31835 C 193.39621,336.40338 216.34103,331.87838 231.8777,316.43615 C 241.8809,306.49373 248.59412,292.89779 252.65773,279.71982 C 249.11707,282.22037 245.77894,283.0981 243.26143,281.78064 C 237.61549,278.82603 238.33677,266.02365 244.90939,253.18764 C 248.1295,246.89894 252.15122,241.77234 256.08115,238.5199 C 255.91275,238.15564 255.72342,237.83826 255.53023,237.5616 z"
         style="opacity:0.92035403;fill:#000000;fill-opacity:1;stroke:none;stroke-width:2.13610148;stroke-linejoin:round;stroke-miterlimit:4;stroke-dasharray:none;stroke-opacity:1;filter:url(#filter10976)" />
      <g
         inkscape:export-ydpi="90"
         inkscape:export-xdpi="90"
         inkscape:export-filename="C:\Users\eedwards\Documents\_Community\DevFuel\g10857.png"
         transform="matrix(0.473495,0.4763906,-0.4763906,0.473495,269.81228,39.669197)"
         id="g10851">
        <path
           style="opacity:0.92035403;fill:url(#linearGradient3487);fill-opacity:1;stroke:#9b1600;stroke-width:1.875;stroke-linejoin:round;stroke-miterlimit:4;stroke-dasharray:none;stroke-opacity:1"
           d="M 23.15625,360.09375 C 23.32898,364.07498 22.078396,370.14294 19.5625,376.46875 C 15.602855,386.42463 9.995802,393.25566 7.0625,391.71875 C 4.409321,390.3286 4.838917,382.55622 7.875,373.71875 C -1.95861,387.23083 -12.4375,408.0788 -12.4375,423.71875 C -12.437501,442.41885 0.32109,459.9375 22.625,459.9375 C 46.2443,459.93753 57.625,442.85293 57.625,423.625 C 57.625,411.24519 53.31466,398.65288 47.625,387.96875 C 46.99087,391.72033 45.47174,394.34165 43.09375,395.09375 C 37.76072,396.78045 30.236727,388.40955 26.3125,376.375 C 24.389917,370.47895 23.686842,364.80293 24.09375,360.34375 C 23.762778,360.22319 23.448034,360.14467 23.15625,360.09375 z"
           id="path10853" />
        <path
           id="path10855"
           d="M 20.997802,396.66346 C 20.352742,396.70759 19.725752,396.8075 19.092142,396.88001 L 19.048842,396.88001 L 17.532982,405.15228 C 15.062242,405.71495 12.737782,406.66986 10.646632,407.96746 L 3.846902,403.07338 C 2.008772,404.50047 0.336082,406.16482 -1.133778,407.96746 L 3.587062,414.85379 C 2.153672,417.04426 1.075792,419.54545 0.468702,422.17322 C 0.468592,422.18564 0.468622,422.21437 0.468702,422.21654 L -7.760248,423.51584 C -7.910708,424.74465 -7.976818,426.0146 -7.976818,427.28385 C -7.976818,428.32232 -7.948128,429.34693 -7.846878,430.35887 L 0.382082,431.83143 C 0.967342,434.68907 2.079102,437.35785 3.630362,439.71391 L -1.263698,446.427 C 0.137912,448.16706 1.756082,449.75131 3.500432,451.14782 L 10.430092,446.38368 C 12.851902,447.92861 15.555362,449.01192 18.485802,449.54535 L 19.785112,457.731 C 20.708402,457.81503 21.655222,457.81762 22.600282,457.81762 C 23.934512,457.81762 25.208932,457.76705 26.498222,457.60107 L 28.057382,449.24217 C 30.839732,448.54976 33.453472,447.34858 35.723312,445.73403 L 42.39311,450.58479 C 44.12279,449.11322 45.70447,447.42173 47.07062,445.6041 L 42.21987,438.58783 C 43.53352,436.31909 44.44378,433.81589 44.90511,431.13846 L 53.09076,429.83915 C 53.16254,428.98494 53.17737,428.15652 53.17737,427.28385 C 53.17737,425.76734 53.0011,424.28042 52.78759,422.82288 L 44.472,421.30702 C 43.82035,418.90073 42.75113,416.65569 41.39697,414.63723 L 46.29103,407.92414 C 44.77404,406.06892 43.04356,404.35512 41.1371,402.90015 L 34.077532,407.7509 C 32.048532,406.5509 29.865042,405.63017 27.494352,405.10898 L 26.195052,396.88001 C 25.012432,396.74089 23.820082,396.66346 22.600282,396.66346 C 22.270612,396.66346 21.931322,396.65308 21.604152,396.66346 C 21.444652,396.66852 21.286812,396.65417 21.127732,396.66346 C 21.084652,396.66597 21.040802,396.6605 20.997802,396.66346 z M 22.123872,417.71227 C 22.282092,417.70424 22.440082,417.71227 22.600282,417.71227 C 27.727022,417.71227 31.912012,421.89726 31.912012,427.02398 C 31.912012,432.15072 27.727022,436.2924 22.600282,436.2924 C 17.473562,436.2924 13.331882,432.15072 13.331882,427.02398 C 13.331882,422.05746 17.218852,417.96116 22.123872,417.71227 z"
           style="fill:url(#radialGradient3489);fill-opacity:1;fill-rule:nonzero;stroke:#f3f948;stroke-width:1.875;stroke-linecap:round;stroke-linejoin:round;marker:none;marker-start:none;marker-mid:none;marker-end:none;stroke-miterlimit:4;stroke-dasharray:none;stroke-dashoffset:0;stroke-opacity:1;visibility:visible;display:inline;overflow:visible"
           inkscape:r_cx="true"
           inkscape:r_cy="true" />
      </g>
      <g
         inkscape:export-ydpi="90"
         inkscape:export-xdpi="90"
         transform="matrix(0.5895732,0,0,0.5895732,59.212393,2.0488071)"
         id="g10857">
        <path
           style="font-size:63.81271362px;font-style:normal;font-variant:normal;font-weight:normal;font-stretch:normal;text-align:start;line-height:100%;writing-mode:lr-tb;text-anchor:start;fill:url(#linearGradient3491);fill-opacity:1;stroke:#911602;stroke-width:1px;stroke-linecap:butt;stroke-linejoin:miter;stroke-opacity:1;font-family:MoolBoran;-inkscape-font-specification:MoolBoran"
           d="M 9.9294431,465.88329 C 9.4516628,465.77946 8.9167728,465.6704 8.3247728,465.55613 C 7.7327528,465.44191 7.1978628,465.38478 6.7201128,465.38475 C 6.3877428,465.38478 6.0398028,465.41075 5.6763028,465.46265 C 5.3127728,465.51461 5.0271528,465.65482 4.8194428,465.88329 C 4.7155728,466.00795 4.6220928,466.27799 4.5390128,466.69341 C 4.4559128,467.10889 4.3884028,467.61262 4.3364828,468.2046 C 4.2845428,468.79664 4.2481928,469.44578 4.2274228,470.15201 C 4.2066428,470.8583 4.1962628,471.57494 4.1962728,472.30195 L 4.1962728,475.16854 L 9.0258428,475.16854 L 8.7454128,477.41195 C 8.2260928,477.45352 7.6964028,477.50545 7.1563328,477.56775 C 6.6993328,477.60931 6.2059828,477.65085 5.6763028,477.69238 C 5.1465928,477.73394 4.6532528,477.77549 4.1962728,477.81702 L 4.1962728,494.36221 L -1.2564772,494.36221 L -1.2564772,477.81702 C -1.4226572,477.81703 -1.6719272,477.81184 -2.0042872,477.80144 C -2.3366472,477.79107 -2.6793872,477.78587 -3.0325172,477.78586 L -4.2788572,477.78586 L -4.0295872,476.22793 C -3.6349172,476.08254 -3.2610172,475.95791 -2.9078772,475.85403 C -2.6170672,475.75018 -2.3158672,475.65152 -2.0042872,475.55802 C -1.6926972,475.46456 -1.4434272,475.40744 -1.2564772,475.38665 L -1.2564772,471.89689 C -1.2564772,470.69212 -0.99163717,469.51848 -0.46193714,468.37597 C 0.067752859,467.23352 0.75843284,466.21048 1.6101128,465.30686 C 2.4617728,464.40329 3.4276828,463.67626 4.5078528,463.12576 C 5.5880028,462.57532 6.6785528,462.30009 7.7795028,462.30006 C 8.2364828,462.30009 8.7505928,462.32605 9.3218528,462.37795 C 9.8930731,462.42992 10.396802,462.48704 10.833042,462.54933 L 9.9294431,465.88329 z M 17.812552,475.16854 L 17.812552,488.03702 C 17.812542,489.17951 17.994302,490.02598 18.357832,490.57644 C 18.721332,491.12691 19.339312,491.40215 20.211762,491.40214 C 20.523332,491.40215 20.866082,491.35541 21.239992,491.26193 C 21.613882,491.16846 21.998172,491.04382 22.392862,490.88803 C 22.787522,490.73224 23.166622,490.55567 23.530152,490.35833 C 23.893652,490.161 24.231202,489.94808 24.542802,489.71958 L 24.542802,475.16854 L 30.026702,475.16854 L 30.026702,494.36221 L 25.134812,494.36221 L 24.636272,492.11879 L 24.573962,492.11879 C 24.200042,492.36806 23.748242,492.6433 23.218562,492.94449 C 22.688852,493.24569 22.117612,493.53651 21.504842,493.81693 C 20.892042,494.09736 20.248102,494.33105 19.573012,494.518 C 18.897902,494.70495 18.238382,494.79843 17.594442,494.79843 C 16.867402,494.79843 16.187112,494.67899 15.553562,494.4401 C 14.919992,494.20122 14.364332,493.84809 13.886572,493.38071 C 13.408812,492.91334 13.029712,492.32132 12.749292,491.60467 C 12.468862,490.88803 12.328642,490.06233 12.328652,489.12757 L 12.328652,475.16854 L 17.812552,475.16854 z M 44.266162,474.76348 C 45.180132,474.7635 46.068152,474.89332 46.930222,475.15296 C 47.792252,475.41263 48.586802,475.84885 49.313842,476.46162 C 50.040862,477.07442 50.669222,477.89493 51.198942,478.92314 C 51.728612,479.95139 52.128482,481.23408 52.398542,482.77123 L 52.398542,483.02049 C 52.232342,483.249 52.009042,483.45672 51.728632,483.64366 C 51.448192,483.83063 51.079482,483.99161 50.622502,484.12662 C 50.165492,484.26165 49.604642,484.38629 48.939942,484.50053 C 48.275212,484.61478 47.475482,484.70307 46.540732,484.76537 L 40.495972,485.23275 L 40.495972,486.04287 C 40.495972,487.53849 40.890642,488.77445 41.680002,489.75074 C 42.469342,490.72705 43.653362,491.2152 45.232072,491.21519 C 45.876012,491.2152 46.551112,491.14769 47.257382,491.01266 C 47.963632,490.87765 48.633532,490.71666 49.267112,490.5297 C 49.900652,490.34276 50.482272,490.15061 51.011992,489.95327 C 51.541662,489.75594 51.941532,489.58457 52.211592,489.43916 L 52.678972,490.84129 C 52.097322,491.27751 51.442992,491.72931 50.715982,492.19669 C 49.988932,492.66407 49.209972,493.08471 48.379092,493.45861 C 47.548182,493.83251 46.670552,494.1389 45.746192,494.37779 C 44.821812,494.61667 43.871472,494.73611 42.895182,494.73611 C 41.752692,494.73611 40.688112,494.56474 39.701432,494.22199 C 38.714742,493.87925 37.863072,493.33398 37.146432,492.58617 C 36.429782,491.83837 35.863732,490.86207 35.448292,489.65727 C 35.032842,488.45247 34.825122,486.98802 34.825122,485.26391 C 34.825122,483.33209 35.064002,481.69627 35.541762,480.35644 C 36.019532,479.01664 36.684242,477.93647 37.535912,477.11595 C 38.387572,476.29546 39.389842,475.69825 40.542712,475.32433 C 41.695572,474.95045 42.936722,474.7635 44.266162,474.76348 L 44.266162,474.76348 z M 41.680002,478.00397 C 41.534582,478.12862 41.394372,478.36231 41.259362,478.70503 C 41.124332,479.04779 41.004892,479.45285 40.901042,479.92022 C 40.797172,480.38761 40.714082,480.87576 40.651772,481.38467 C 40.589442,481.89361 40.558282,482.38695 40.558292,482.8647 L 46.571892,482.58427 C 46.509562,482.02343 46.416092,481.44181 46.291472,480.8394 C 46.166822,480.23701 45.985062,479.68654 45.746192,479.18799 C 45.507302,478.68947 45.211292,478.27402 44.858172,477.94165 C 44.505032,477.60931 44.079202,477.44313 43.580672,477.44311 C 43.227532,477.44313 42.895172,477.48467 42.583602,477.56775 C 42.272002,477.65085 41.970802,477.79626 41.680002,478.00397 L 41.680002,478.00397 z M 62.680872,494.36221 L 57.228122,494.36221 L 57.228122,462.89207 L 62.680872,461.77036 L 62.680872,494.36221 z"
           id="path10859"
           sodipodi:nodetypes="csssssssccccssccccscccssccsssssccccssssscccccccsssssssccccsssccssscccsssssccssssssssssscccsssccsssssccccccc" />
        <g
           id="g10861"
           transform="translate(-182.85714,82.714286)">
          <path
             sodipodi:nodetypes="csscccccccssssssssssscccsssccsscscccsssccssscccsssssccssssssssssscccsssccssssscccsssssssssccsssssccsssssccsssscccccccccsssssssssssccssssssssssscccssssssssssscccsssssssssssssssccccssscccccccssssscsssssssccccsssccc"
             id="path10863"
             d="M 126.80147,392.50699 C 126.80146,392.21619 126.79107,391.93576 126.77031,391.6657 C 126.74953,391.43723 126.73914,391.20354 126.73915,390.96464 C 126.73914,390.72578 126.73914,390.52325 126.73915,390.35705 L 126.73915,380.26167 L 132.1919,379.13997 L 132.1919,411.73181 L 128.48403,411.73181 L 126.95726,409.92462 L 126.86379,409.92462 C 126.11597,410.4647 125.31104,410.96323 124.449,411.42023 C 123.58694,411.87722 122.59506,412.10571 121.47336,412.10571 C 120.47628,412.10571 119.51556,411.93434 118.59119,411.5916 C 117.66682,411.24885 116.8515,410.70358 116.14525,409.95577 C 115.43898,409.20797 114.87294,408.23167 114.44711,407.02687 C 114.02127,405.82208 113.80835,404.35763 113.80836,402.63351 C 113.80835,400.99251 114.01608,399.52286 114.43153,398.22458 C 114.84697,396.92632 115.44937,395.83058 116.23872,394.93735 C 117.02807,394.04416 117.9836,393.35867 119.10531,392.88089 C 120.22701,392.40314 121.49412,392.16426 122.90665,392.16424 C 123.48827,392.16426 124.11663,392.19542 124.79174,392.25772 C 125.46683,392.32005 126.13674,392.40314 126.80147,392.50699 L 126.80147,392.50699 z M 119.44805,402.32193 C 119.44805,404.52381 119.81156,406.13886 120.5386,407.16708 C 121.26563,408.19532 122.23154,408.70944 123.43635,408.70943 C 124.03873,408.70944 124.62555,408.62635 125.19681,408.46016 C 125.76803,408.29399 126.27176,408.09665 126.708,407.86815 L 126.708,395.34241 C 125.87709,395.15548 125.04619,395.062 124.21531,395.06199 C 123.44672,395.062 122.77162,395.12432 122.19001,395.24894 C 121.60837,395.37359 121.15138,395.58131 120.81903,395.87211 C 120.50744,396.18371 120.20104,396.87958 119.89985,397.95973 C 119.59865,399.03991 119.44805,400.49397 119.44805,402.32193 L 119.44805,402.32193 z M 146.43136,392.13308 C 147.34533,392.1331 148.23335,392.26293 149.09542,392.52256 C 149.95745,392.78224 150.752,393.21846 151.47904,393.83122 C 152.20606,394.44403 152.83442,395.26453 153.36414,396.29275 C 153.89381,397.321 154.29368,398.60369 154.56374,400.14083 L 154.56374,400.3901 C 154.39754,400.61861 154.17424,400.82633 153.89383,401.01327 C 153.61339,401.20023 153.24468,401.36122 152.7877,401.49623 C 152.33069,401.63126 151.76984,401.75589 151.10514,401.87013 C 150.44041,401.98439 149.64068,402.07267 148.70593,402.13498 L 142.66117,402.60236 L 142.66117,403.41248 C 142.66117,404.9081 143.05584,406.14405 143.8452,407.12035 C 144.63454,408.09665 145.81856,408.5848 147.39727,408.5848 C 148.04121,408.5848 148.71631,408.51729 149.42258,408.38227 C 150.12883,408.24725 150.79873,408.08626 151.43231,407.89931 C 152.06585,407.71236 152.64747,407.52022 153.17719,407.32288 C 153.70686,407.12554 154.10673,406.95417 154.37679,406.80876 L 154.84417,408.2109 C 154.26252,408.64712 153.60819,409.09892 152.88118,409.56629 C 152.15413,410.03367 151.37517,410.45431 150.54429,410.82821 C 149.71338,411.20212 148.83575,411.50851 147.91139,411.74739 C 146.98701,411.98627 146.03667,412.10571 145.06038,412.10571 C 143.91789,412.10571 142.85331,411.93434 141.86663,411.5916 C 140.87994,411.24885 140.02827,410.70358 139.31163,409.95577 C 138.59498,409.20797 138.02893,408.23167 137.61349,407.02687 C 137.19804,405.82208 136.99032,404.35763 136.99032,402.63351 C 136.99032,400.7017 137.2292,399.06587 137.70697,397.72604 C 138.18473,396.38624 138.84944,395.30608 139.70111,394.48555 C 140.55277,393.66506 141.55504,393.06786 142.70791,392.69394 C 143.86077,392.32005 145.10192,392.1331 146.43136,392.13308 L 146.43136,392.13308 z M 143.8452,395.37357 C 143.69978,395.49822 143.55957,395.73191 143.42456,396.07464 C 143.28953,396.4174 143.17009,396.82246 143.06624,397.28982 C 142.96237,397.75722 142.87928,398.24537 142.81697,398.75427 C 142.75464,399.26321 142.72348,399.75655 142.72349,400.23431 L 148.73709,399.95388 C 148.67476,399.39304 148.58129,398.81141 148.45667,398.209 C 148.33202,397.60662 148.15026,397.05615 147.91139,396.5576 C 147.6725,396.05908 147.37649,395.64363 147.02337,395.31125 C 146.67023,394.97891 146.2444,394.81273 145.74587,394.81272 C 145.39273,394.81273 145.06037,394.85428 144.7488,394.93735 C 144.4372,395.02046 144.136,395.16586 143.8452,395.37357 L 143.8452,395.37357 z M 156.15283,392.78741 C 156.36055,392.74589 156.63578,392.69915 156.97853,392.6472 C 157.32127,392.59529 157.68998,392.54336 158.08466,392.49141 C 158.47933,392.43949 158.86881,392.39795 159.2531,392.36677 C 159.63739,392.33563 159.97494,392.32005 160.26576,392.32003 C 160.93047,392.32005 161.49651,392.38756 161.9639,392.52256 C 162.43127,392.6576 162.83114,392.93284 163.1635,393.34827 C 163.49585,393.76373 163.86975,394.4648 164.28521,395.45147 C 164.70065,396.43817 165.13687,397.58065 165.59387,398.87891 C 166.05085,400.17719 166.50265,401.54298 166.94927,402.97626 C 167.39586,404.40956 167.80611,405.78053 168.18003,407.08919 L 168.21119,407.08919 C 168.93821,405.75976 169.51464,404.58093 169.94049,403.55269 C 170.36631,402.52447 170.68828,401.55855 170.9064,400.65495 C 171.1245,399.75136 171.26471,398.87892 171.32704,398.03763 C 171.38934,397.19636 171.4205,396.28757 171.42052,395.31125 C 171.4205,394.89582 171.39454,394.42845 171.34262,393.90912 C 171.29068,393.38983 171.23355,393.01593 171.17125,392.78741 L 175.28418,392.1954 C 175.38802,392.44469 175.47111,392.77185 175.53345,393.17689 C 175.59574,393.58197 175.6269,393.98184 175.62692,394.3765 C 175.6269,395.91367 175.41399,397.44563 174.98817,398.97238 C 174.56232,400.49916 174.01185,401.99477 173.33677,403.45922 C 172.66165,404.92367 171.91385,406.35177 171.09335,407.74352 C 170.27283,409.13527 169.4679,410.4647 168.67857,411.73181 L 164.19173,411.73181 C 163.65165,409.94539 163.0856,408.16416 162.49359,406.38812 C 161.90157,404.61209 161.31995,402.97627 160.74871,401.48065 C 160.17747,399.98505 159.64778,398.69197 159.15963,397.60141 C 158.67147,396.51087 158.26122,395.75788 157.92887,395.34241 C 157.51342,394.84389 157.00449,394.59463 156.4021,394.59461 L 156.15283,394.59461 L 156.15283,392.78741 z M 252.71318,404.68998 L 256.38989,408.52248 L 252.71318,412.38614 L 249.06763,408.52248 L 252.71318,404.68998 z M 274.86691,396.68223 C 274.1814,396.32912 273.36609,395.98637 272.42096,395.654 C 271.47581,395.32166 270.45277,395.15548 269.35184,395.15546 C 268.89484,395.15548 268.43785,395.20222 267.98087,395.29568 C 267.52387,395.38917 267.12919,395.56054 266.79684,395.80979 C 266.42293,396.07985 266.12173,396.7186 265.89324,397.72604 C 265.66474,398.73352 265.55049,400.30702 265.5505,402.44656 C 265.55049,403.6306 265.63358,404.63286 265.79977,405.45336 C 265.96594,406.27388 266.21521,406.93859 266.54757,407.44751 C 266.87992,407.95644 267.29537,408.31995 267.79392,408.53806 C 268.29244,408.75617 268.86368,408.86523 269.50764,408.86522 C 270.52547,408.86523 271.58486,408.75617 272.68581,408.53806 C 273.78673,408.31995 274.7838,408.02395 275.67703,407.65004 L 276.17557,409.05218 C 275.11616,409.92462 273.90617,410.65165 272.5456,411.23327 C 271.18499,411.8149 269.69458,412.10571 268.07434,412.10571 C 266.93185,412.10571 265.85689,411.93434 264.84943,411.5916 C 263.84197,411.24885 262.97472,410.70358 262.24769,409.95577 C 261.52066,409.20797 260.94423,408.23167 260.51839,407.02687 C 260.09256,405.82208 259.87964,404.35763 259.87964,402.63351 C 259.87964,400.99251 260.10295,399.52286 260.54955,398.22458 C 260.99616,396.92632 261.64529,395.82539 262.49696,394.92177 C 263.34862,394.01819 264.40801,393.32751 265.67514,392.84973 C 266.94224,392.37198 268.39631,392.1331 270.03733,392.13308 C 271.03439,392.1331 272.03666,392.20581 273.04413,392.35119 C 274.05158,392.49662 274.97075,392.6628 275.80166,392.84973 L 274.86691,396.68223 z M 288.3274,412.10571 C 285.21154,412.10571 282.82791,411.25924 281.17651,409.56629 C 279.52511,407.87335 278.69941,405.39625 278.69941,402.13498 C 278.69941,400.59783 278.90194,399.21128 279.307,397.97531 C 279.71206,396.73937 280.31965,395.69037 281.12977,394.8283 C 281.93989,393.96626 282.94735,393.30155 284.15215,392.83415 C 285.35694,392.36679 286.74869,392.1331 288.3274,392.13308 C 291.50556,392.1331 293.90476,392.99515 295.52503,394.71924 C 297.14525,396.44336 297.95537,398.8945 297.95539,402.07266 C 297.95537,403.6306 297.75284,405.02754 297.3478,406.26349 C 296.94272,407.49945 296.33513,408.54845 295.52503,409.4105 C 294.71489,410.27255 293.70743,410.93727 292.50265,411.40465 C 291.29783,411.87202 289.90609,412.10571 288.3274,412.10571 L 288.3274,412.10571 z M 284.37026,402.10382 C 284.37026,404.61728 284.67146,406.46602 285.27386,407.65004 C 285.87625,408.83407 286.88371,409.42608 288.29624,409.42608 C 288.83631,409.42608 289.34523,409.37934 289.82301,409.28587 C 290.30076,409.19239 290.69544,409.05218 291.00704,408.86522 C 291.21474,408.76137 291.3965,408.5069 291.55231,408.10184 C 291.70809,407.69678 291.84311,407.19305 291.95737,406.59065 C 292.0716,405.98826 292.15469,405.30277 292.20664,404.53419 C 292.25856,403.76562 292.28452,402.96588 292.28454,402.13498 C 292.28452,399.68385 291.97813,397.85069 291.36536,396.63549 C 290.75256,395.42033 289.76068,394.81273 288.38972,394.81272 C 287.8704,394.81273 287.36147,394.86467 286.86295,394.96851 C 286.3644,395.07239 285.92818,395.23857 285.55429,395.46705 C 285.34656,395.5917 285.1648,395.85135 285.00901,396.24601 C 284.85321,396.6407 284.72858,397.13924 284.63511,397.74162 C 284.54163,398.34403 284.47412,399.01914 284.43258,399.76693 C 284.39103,400.51474 284.37026,401.29371 284.37026,402.10382 L 284.37026,402.10382 z M 314.53174,411.73181 L 314.53174,398.86333 C 314.53173,397.72086 314.36036,396.87958 314.01763,396.33949 C 313.67487,395.79942 313.10882,395.52938 312.31948,395.52936 C 311.73785,395.52938 311.06275,395.69037 310.29418,396.01232 C 309.52559,396.33431 308.86088,396.72379 308.30003,397.18077 L 308.30003,411.73181 L 302.84729,411.73181 L 302.84729,392.53814 L 307.70802,392.53814 L 308.1754,394.78156 L 308.23771,394.78156 C 308.61161,394.53231 309.05302,394.25707 309.56195,393.95586 C 310.07087,393.65468 310.61614,393.36906 311.19778,393.099 C 311.77939,392.82898 312.38698,392.60048 313.02055,392.41351 C 313.6541,392.22658 314.28246,392.1331 314.90564,392.13308 C 315.92347,392.1331 316.83746,392.37198 317.6476,392.84973 C 318.4577,393.32751 319.07048,394.05454 319.48595,395.03083 C 319.88061,394.7608 320.35837,394.45961 320.91925,394.12723 C 321.48008,393.79489 322.08248,393.47811 322.72644,393.17689 C 323.37036,392.87571 324.02469,392.62645 324.68943,392.42909 C 325.35412,392.23177 325.99806,392.1331 326.62126,392.13308 C 327.32749,392.1331 327.98701,392.25254 328.59983,392.49141 C 329.21258,392.73031 329.74747,393.08344 330.20449,393.5508 C 330.66145,394.01819 331.01978,394.60501 331.27946,395.31125 C 331.53909,396.01753 331.66891,396.84842 331.66895,397.80394 L 331.66895,411.73181 L 326.2162,411.73181 L 326.2162,398.86333 C 326.21617,397.72086 326.0448,396.87958 325.70208,396.33949 C 325.35931,395.79942 324.79327,395.52938 324.00394,395.52936 C 323.42229,395.52938 322.74719,395.69037 321.97864,396.01232 C 321.21004,396.33431 320.54532,396.72379 319.98449,397.18077 L 319.98449,411.73181 L 314.53174,411.73181 z"
             style="font-size:63.81271362px;font-style:normal;font-variant:normal;font-weight:normal;font-stretch:normal;text-align:start;line-height:100%;writing-mode:lr-tb;text-anchor:start;fill:url(#linearGradient3493);fill-opacity:1;stroke:#828282;stroke-width:1px;stroke-linecap:butt;stroke-linejoin:miter;stroke-opacity:1;font-family:MoolBoran;-inkscape-font-specification:MoolBoran" />
        </g>
      </g>
    </g>
  </g>
</svg>
